P1
30 16
000000000000000000000000000000
000000000000000000000000000000
000000000000000000000000000000
000111111111000000111110000000
000111111110001111111110000000
000111111110001111111110000000
000111111111111111111111111000
000001111111111111111111111000
000001111111111111111111111000
000001111111111111111111111000
000000001111111111111111111000
000000001111111111111110000000
000000001111111111111110000000
000000000000000000000000000000
000000000000000000000000000000
000000000000000000000000000000

